<svg xmlns="http://www.w3.org/2000/svg" width="220.471" height="186.922" viewBox="0 0 220.471 186.922"><g id="Group_75" data-name="Group 75" transform="translate(0 -21.16)"><g id="Group_74" data-name="Group 74" transform="translate(0 21.16)"><path id="Path_55" data-name="Path 55" d="M204.74,43.208C189.6,28.577,172.869,21.16,155.009,21.16c-17.668,0-33.791,8.241-44.8,22.269C99.256,29.4,83.243,21.16,65.722,21.16c-17.76,0-34.012,7.188-49.658,21.98C5.814,52.835-.2,67.806,0,83.193c.156,12.167,4.183,30.128,22.485,46.637,14.23,12.83,80.664,75.092,81.335,75.72a9.725,9.725,0,0,0,13.09,0c.671-.629,67.105-62.891,81.326-75.72C230.709,100.559,222.877,60.711,204.74,43.208Zm-48.472,71.413c0,4.69-4.109,8.5-9.192,8.5s-9.192-3.806-9.192-8.5v-8.5H82.728v8.5c0,4.69-4.109,8.5-9.192,8.5s-9.192-3.806-9.192-8.5V80.635c0-4.69,4.109-8.5,9.192-8.5s9.192,3.806,9.192,8.5v8.5h55.155v-8.5c0-4.69,4.109-8.5,9.192-8.5s9.192,3.806,9.192,8.5Z" transform="translate(0 -21.16)" fill="#ff5b62"/></g></g></svg>